<?xml version="1.0" encoding="UTF-8"?>
<svg xmlns="http://www.w3.org/2000/svg" id="Layer_1" data-name="Layer 1" viewBox="0 0 24 24">
  <path d="m19,4h-4c-1.103,0-2,.897-2,2v4c0,.364.098.706.269,1h-2.151c-.191,0-.362-.105-.447-.276l-1.395-2.789c-.597-1.193-1.796-1.935-3.131-1.935-1.734,0-3.146,1.411-3.146,3.146v4.184c0,1.23.658,2.384,1.717,3.012l2.547,1.508c.454.269.736.764.736,1.291v4.36c0,.276.224.5.5.5s.5-.224.5-.5v-4.36c0-.879-.47-1.703-1.227-2.151l-2.547-1.508c-.757-.448-1.227-1.272-1.227-2.151v-4.184c0-1.183.963-2.146,2.146-2.146.298,0,.586.052.854.149v7.351c0,.276.224.5.5.5s.5-.224.5-.5v-6.679c.149.166.278.354.382.561l1.395,2.789c.255.512.77.83,1.342.83h7.882c1.103,0,2-.897,2-2v-4c0-1.103-.897-2-2-2Zm1,6c0,.551-.448,1-1,1h-4c-.552,0-1-.449-1-1v-4c0-.551.448-1,1-1h4c.552,0,1,.449,1,1v4ZM6.5,5c1.379,0,2.5-1.122,2.5-2.5S7.879,0,6.5,0s-2.5,1.122-2.5,2.5,1.121,2.5,2.5,2.5Zm0-4c.827,0,1.5.673,1.5,1.5s-.673,1.5-1.5,1.5-1.5-.673-1.5-1.5.673-1.5,1.5-1.5Zm-1.5,17.5v5c0,.276-.224.5-.5.5s-.5-.224-.5-.5v-5c0-.276.224-.5.5-.5s.5.224.5.5Z"/>
</svg>
