<?xml version="1.0" encoding="UTF-8"?>
<svg xmlns="http://www.w3.org/2000/svg" id="Outline" viewBox="0 0 24 24">
  <path d="m24,9.5c0-.036-1.402-6.368-1.402-6.368-.41-1.844-2.016-3.132-3.905-3.132H5.308C3.418,0,1.813,1.288,1.403,3.132c0,0-1.403,6.332-1.403,6.368,0,.955.387,1.821,1.009,2.453-.002.016-.009.03-.009.047v7.5c0,2.481,2.019,4.5,4.5,4.5h13c2.481,0,4.5-2.019,4.5-4.5v-7.5c0-.017-.008-.031-.009-.047.623-.632,1.009-1.498,1.009-2.453ZM2.379,3.349c.307-1.383,1.511-2.349,2.928-2.349h1.692v4.5c0,.276.224.5.5.5s.5-.224.5-.5V1h8v4.5c0,.276.224.5.5.5s.5-.224.5-.5V1h1.692c1.417,0,2.622.966,2.929,2.349l1.378,6.204c-.028,1.354-1.139,2.447-2.5,2.447h-1c-1.378,0-2.5-1.121-2.5-2.5,0-.276-.224-.5-.5-.5s-.5.224-.5.5c0,1.379-1.122,2.5-2.5,2.5h-3c-1.378,0-2.5-1.121-2.5-2.5,0-.276-.224-.5-.5-.5s-.5.224-.5.5c0,1.379-1.122,2.5-2.5,2.5h-1c-1.361,0-2.472-1.093-2.5-2.447l1.379-6.204Zm16.121,19.651H5.5c-1.93,0-3.5-1.57-3.5-3.5v-6.851c.456.219.961.351,1.5.351h1c1.28,0,2.39-.698,3-1.726.61,1.028,1.72,1.726,3,1.726h3c1.28,0,2.39-.698,3-1.726.61,1.028,1.72,1.726,3,1.726h1c.539,0,1.044-.133,1.5-.351v6.851c0,1.93-1.57,3.5-3.5,3.5Z"/>
</svg>
