<svg width="244" height="497" viewBox="0 0 244 497" fill="none" xmlns="http://www.w3.org/2000/svg" id="svg-2021147049_7026">
    <path d="M241.905 127.224H242.769C243.246 127.224 243.632 127.612 243.632 128.091V184.763C243.632 185.242 243.246 185.631 242.769 185.631H241.905V127.224Z" fill="#303030"></path>
    <path d="M1.72733 197.775L0.863376 197.775C0.386232 197.775 -0.000569787 197.387 -0.000569745 196.908L-0.000566774 162.788C-0.000566732 162.309 0.386235 161.921 0.863379 161.921L1.72733 161.921L1.72733 197.775Z" fill="#303030"></path>
    <path d="M1.72733 150.355L0.863376 150.355C0.386232 150.355 -0.000569787 149.967 -0.000569745 149.488L-0.000566774 115.369C-0.000566732 114.89 0.386235 114.501 0.863379 114.501L1.72733 114.501L1.72733 150.355Z" fill="#333333"></path>
    <path d="M1.72733 97.1526L0.863378 97.1526C0.386235 97.1526 -0.000567522 96.7642 -0.00056748 96.2852L-0.00056602 79.5148C-0.000565978 79.0357 0.386236 78.6473 0.86338 78.6473L1.72733 78.6473L1.72733 97.1526Z" fill="#333333"></path>
    <path fill-rule="evenodd" clip-rule="evenodd" d="M3.55946 25.9732C1.72713 31.6353 1.72713 38.6317 1.72713 52.6243V443.548C1.72713 457.541 1.72713 464.537 3.55946 470.199C7.26271 481.642 16.1985 490.614 27.5959 494.332C33.2352 496.172 40.2034 496.172 54.1398 496.172H189.491C203.428 496.172 210.396 496.172 216.035 494.332C227.433 490.614 236.369 481.642 240.072 470.199C241.904 464.537 241.904 457.541 241.904 443.548V52.6243C241.904 38.6317 241.904 31.6353 240.072 25.9732C236.369 14.5298 227.433 5.55793 216.035 1.83973C210.396 0 203.428 0 189.491 0H54.1398C40.2034 0 33.2352 0 27.5959 1.83973C16.1985 5.55793 7.26271 14.5298 3.55946 25.9732ZM62.7798 14.1681V16.7704L62.8209 16.7691L62.7796 17.0595C62.7796 23.9262 68.3238 29.4927 75.1628 29.4927H168.469C175.308 29.4927 180.852 23.9262 180.852 17.0595L180.811 16.7691L180.852 16.7704V14.1681C180.852 12.4115 182.27 10.9875 184.02 10.9875L191.438 10.9875C203.036 10.9875 208.835 10.9875 213.459 12.7421C220.729 15.5 226.467 21.2613 229.214 28.5598C230.961 33.2032 230.961 39.0254 230.961 50.6697V445.503C230.961 457.147 230.961 462.969 229.214 467.612C226.467 474.911 220.729 480.672 213.459 483.43C208.835 485.185 203.036 485.185 191.438 485.185H52.1934C40.5959 485.185 34.7971 485.185 30.1724 483.43C22.9032 480.672 17.165 474.911 14.4183 467.612C12.6707 462.969 12.6707 457.147 12.6707 445.503V50.6697C12.6707 39.0254 12.6707 33.2032 14.4183 28.5598C17.165 21.2613 22.9032 15.5 30.1724 12.7421C34.7971 10.9875 40.5959 10.9875 52.1934 10.9875L59.612 10.9875C61.3615 10.9875 62.7798 12.4115 62.7798 14.1681Z" fill="#333333"></path>
    <path fill-rule="evenodd" clip-rule="evenodd" d="M189.722 1.15669H53.91C40.1431 1.15669 33.3963 1.16382 27.9524 2.93981C16.9056 6.54361 8.2448 15.2394 4.65549 26.3307C2.88664 31.7967 2.87954 38.5707 2.87954 52.3931V443.779C2.87954 457.602 2.88664 464.376 4.65549 469.842C8.2448 480.933 16.9056 489.629 27.9524 493.233C33.3963 495.009 40.1431 495.016 53.91 495.016H189.722C203.489 495.016 210.236 495.009 215.68 493.233C226.727 489.629 235.387 480.933 238.977 469.842C240.746 464.376 240.753 457.602 240.753 443.779V52.3931C240.753 38.5707 240.746 31.7967 238.977 26.3307C235.387 15.2394 226.727 6.54361 215.68 2.93981C210.236 1.16382 203.489 1.15669 189.722 1.15669ZM4.10771 26.152C2.30357 31.727 2.30357 38.6157 2.30357 52.3931V443.779C2.30357 457.557 2.30357 464.445 4.10771 470.02C7.754 481.288 16.5523 490.122 27.7744 493.783C33.327 495.594 40.188 495.594 53.91 495.594H189.722C203.444 495.594 210.305 495.594 215.858 493.783C227.08 490.122 235.878 481.288 239.525 470.02C241.329 464.445 241.329 457.557 241.329 443.779V52.3931C241.329 38.6157 241.329 31.727 239.525 26.152C235.878 14.8846 227.08 6.05083 215.858 2.38982C210.305 0.5784 203.444 0.5784 189.722 0.5784H53.91C40.188 0.5784 33.327 0.5784 27.7744 2.38982C16.5523 6.05083 7.754 14.8846 4.10771 26.152Z" fill="#303030"></path>
    <path fill-rule="evenodd" clip-rule="evenodd" d="M6.29967 26.8667C4.60829 32.0933 4.60829 38.5514 4.60829 51.4677V444.704C4.60829 457.621 4.60829 464.079 6.29967 469.305C9.71806 479.869 17.9665 488.15 28.4872 491.582C33.6927 493.281 40.1249 493.281 52.9893 493.281H190.645C203.509 493.281 209.941 493.281 215.147 491.582C225.667 488.15 233.916 479.869 237.334 469.305C239.026 464.079 239.026 457.621 239.026 444.704V51.4677C239.026 38.5514 239.026 32.0933 237.334 26.8667C233.916 16.3035 225.667 8.02185 215.147 4.58966C209.941 2.89145 203.509 2.89145 190.645 2.89145H52.9893C40.1249 2.89145 33.6927 2.89145 28.4872 4.58966C17.9665 8.02185 9.71806 16.3035 6.29967 26.8667ZM62.7805 14.1681V16.7704L62.8216 16.7691L62.7803 17.0595C62.7803 23.9262 68.3244 29.4927 75.1635 29.4927H168.47C175.309 29.4927 180.853 23.9262 180.853 17.0595L180.812 16.7691L180.853 16.7704V14.1681C180.853 12.4115 182.271 10.9875 184.021 10.9875L191.439 10.9875C203.037 10.9875 208.835 10.9875 213.46 12.7421C220.729 15.5 226.467 21.2613 229.214 28.5598C230.962 33.2032 230.962 39.0254 230.962 50.6697V445.503C230.962 457.147 230.962 462.969 229.214 467.612C226.467 474.911 220.729 480.672 213.46 483.43C208.835 485.185 203.037 485.185 191.439 485.185H52.194C40.5965 485.185 34.7978 485.185 30.173 483.43C22.9039 480.672 17.1657 474.911 14.4189 467.612C12.6714 462.969 12.6714 457.147 12.6714 445.503V50.6697C12.6714 39.0254 12.6714 33.2032 14.4189 28.5598C17.1657 21.2613 22.9039 15.5 30.173 12.7421C34.7978 10.9875 40.5965 10.9875 52.194 10.9875L59.6127 10.9875C61.3622 10.9875 62.7805 12.4115 62.7805 14.1681Z" fill="#121515"></path>
    <rect x="190.644" width="3.45577" height="2.89145" fill="#414141"></rect>
    <rect x="239.025" y="49.7329" width="2.87986" height="3.46973" fill="#414141"></rect>
    <rect x="1.72794" y="49.7329" width="2.87982" height="3.46973" fill="#414141"></rect>
    <rect x="1.72794" y="442.97" width="2.87982" height="3.46972" fill="#414141"></rect>
    <rect x="239.025" y="442.97" width="2.87986" height="3.46972" fill="#414141"></rect>
    <rect x="49.5324" y="493.281" width="3.45579" height="2.89144" fill="#414141"></rect>
    <path fill-rule="evenodd" clip-rule="evenodd" d="M146.295 23.1316C148.84 23.1316 150.903 21.0603 150.903 18.5053C150.903 15.9502 148.84 13.879 146.295 13.879C143.75 13.879 141.687 15.9502 141.687 18.5053C141.687 21.0603 143.75 23.1316 146.295 23.1316Z" fill="#262C2D"></path>
    <path fill-rule="evenodd" clip-rule="evenodd" d="M146.294 21.3967C147.885 21.3967 149.174 20.1022 149.174 18.5053C149.174 16.9084 147.885 15.6138 146.294 15.6138C144.704 15.6138 143.415 16.9084 143.415 18.5053C143.415 20.1022 144.704 21.3967 146.294 21.3967Z" fill="#121515"></path>
    <path opacity="0.4" fill-rule="evenodd" clip-rule="evenodd" d="M146.295 17.9275C146.614 17.9275 146.872 17.6685 146.872 17.3489C146.872 17.0294 146.614 16.7704 146.295 16.7704C145.977 16.7704 145.719 17.0294 145.719 17.3489C145.719 17.6685 145.977 17.9275 146.295 17.9275Z" fill="#636F73"></path>
    <path fill-rule="evenodd" clip-rule="evenodd" d="M107.706 18.5053C107.706 17.5471 108.482 16.7704 109.44 16.7704H134.193C135.151 16.7704 135.928 17.5471 135.928 18.5053C135.928 19.4634 135.151 20.2401 134.193 20.2401H109.44C108.482 20.2401 107.706 19.4634 107.706 18.5053Z" fill="#262C2D"></path>
</svg>